# xmcd CD database file
#
# Track frame offsets:
#	150
#	12152
#	26435
#	43507
#	57406
#	71718
#	84750
#	96770
#	112203
#	125091
#	138371
#
# Disc length: 2018 seconds
#
# Revision: 0
# Processed by: cddbd v1.4PL0 Copyright (c) Steve Scherf et al.
# Submitted via: CDex 1.50Beta7
#
DISCID=9207e00b
DTITLE=Hans Petter's Orkester - Gamle gode tider 1
DYEAR=2002
DGENRE=Country
TTITLE0=Mitt eget paradis
TTITLE1=Minner fra en sommer
TTITLE2=Hvert lille sekund
TTITLE3=Gamle gode tider
TTITLE4=En kveld i juli
TTITLE5=Tre røde roser
TTITLE6=Sea of love
TTITLE7=Jeg vil se deg lykk'lig
TTITLE8=The girl who wait on table
TTITLE9=Corrina Corrina
TTITLE10=Marlene
EXTD=YEAR: 2002
EXTT0=
EXTT1=
EXTT2=
EXTT3=
EXTT4=
EXTT5=
EXTT6=
EXTT7=
EXTT8=
EXTT9=
EXTT10=
PLAYORDER=
